# xmcd
#
# Track frame offsets: 
#        182
#        21615
#        48217
#        62460
#        75505
#        89770
#        107612
#        118075
#        134375
#        145940
#
# Disc length: 2160 seconds
#
# Revision: 1
# Processed by: cddbd v1.5PL3 Copyright (c) Steve Scherf et al.
# Submitted via: ExactAudioCopy v0.95a3
#
DISCID=87086e0a
DTITLE=Brent Mason - Hot Wired
DYEAR=1997
DGENRE=Country
TTITLE0=Cayman Moon
TTITLE1=Mellow Midnight
TTITLE2=Blowin' Smoke
TTITLE3=First Rule Of Thumb
TTITLE4=Hot Wired
TTITLE5=Blue Water Girl
TTITLE6=Gator Bite
TTITLE7=My Little Ballerina
TTITLE8=Sugarfoot Rag
TTITLE9=Swing With A Sting
EXTD=
EXTT0=
EXTT1=
EXTT2=
EXTT3=
EXTT4=
EXTT5=
EXTT6=
EXTT7=
EXTT8=
EXTT9=
PLAYORDER=
